# xmcd
#
# Track frame offsets:
#	150
#	15551
#	23252
#	33652
#	71031
#	79037
#	88656
#	95409
#	113252
#	130078
#	152822
#	163213
#
# Disc length: 2353 seconds
# Revision: 3
# Processed by: cddbd v1.5.2PL0 Copyright (c) Steve Scherf et al.
# Submitted via: dBpowerAMP V12.0
#
DISCID=86092f0c
DTITLE=Marty Robbins - The Drifter
DYEAR=1996
DGENRE=Country
TTITLE0=Meet Me Tonight in Laredo
TTITLE1=The Wind Goes
TTITLE2=Cry Stampede
TTITLE3=Feleena (From El Paso)
TTITLE4=Fastest Gun Around
TTITLE5=Saddle Tramp
TTITLE6=Never Tie Me Down
TTITLE7=Cottonwood Tree
TTITLE8=Oh, Virginia
TTITLE9=Mr. Shorty
TTITLE10=Take Me Back to the Prairie
TTITLE11=The Cowboy in the Continental Suit
EXTD=
EXTT0=
EXTT1=
EXTT2=
EXTT3=
EXTT4=
EXTT5=
EXTT6=
EXTT7=
EXTT8=
EXTT9=
EXTT10=
EXTT11=
PLAYORDER=
